<svg width="93" height="25" viewBox="0 0 93 25" fill="none" xmlns="http://www.w3.org/2000/svg">
    <g filter="url(#filter0_d_10_6)">
        <mask id="path-1-outside-1_10_6" maskUnits="userSpaceOnUse" x="1" y="0" width="91" height="24" fill="black">
            <rect fill="white" x="1" width="91" height="24"/>
            <path d="M1.79102 17.3669C1.79102 16.8647 1.95425 16.6135 2.2807 16.6135C2.45648 16.6135 2.61971 16.7014 2.77038 16.8772C3.52373 17.7812 4.37753 18.4969 5.33177 19.0243C6.31113 19.5265 7.49138 19.7776 8.87252 19.7776C10.4295 19.7776 11.6348 19.4763 12.4886 18.8736C13.3424 18.2458 13.7693 17.4046 13.7693 16.3499C13.7693 15.5965 13.4931 14.9938 12.9406 14.5418C12.3882 14.0647 11.685 13.6629 10.8312 13.3365C9.97744 13.01 9.06086 12.6836 8.0815 12.3571C7.10215 12.0306 6.18557 11.6414 5.33177 11.1894C4.47797 10.7123 3.77484 10.097 3.22239 9.34369C2.66993 8.59034 2.3937 7.61098 2.3937 6.40562C2.3937 5.22537 2.69504 4.20835 3.29772 3.35455C3.92552 2.50075 4.76676 1.84785 5.82145 1.39583C6.87614 0.918712 8.0815 0.68015 9.43754 0.68015C10.4671 0.68015 11.3963 0.768042 12.2249 0.943825C13.0787 1.11961 13.8572 1.37072 14.5603 1.69718C15.8159 2.14919 16.293 2.90254 15.9917 3.95723L15.8034 4.71058C15.7531 4.9617 15.6527 5.08726 15.502 5.08726C15.4016 5.08726 15.2132 5.01192 14.937 4.86125C14.1585 4.35902 13.2922 3.96979 12.3379 3.69356C11.4088 3.39222 10.4294 3.24155 9.39987 3.24155C8.21962 3.24155 7.24026 3.50522 6.4618 4.03257C5.68334 4.55991 5.2941 5.30071 5.2941 6.25495C5.2941 7.03342 5.57033 7.66121 6.12279 8.13833C6.67525 8.61545 7.37838 9.01724 8.23217 9.34369C9.08597 9.64503 10.0026 9.95893 10.9819 10.2854C11.9613 10.6118 12.8778 11.0011 13.7316 11.4531C14.5854 11.88 15.2886 12.4575 15.841 13.1858C16.3935 13.914 16.6697 14.8557 16.6697 16.0109C16.6697 17.9193 16.0043 19.4637 14.6733 20.644C13.3675 21.8242 11.5344 22.4143 9.17386 22.4143C7.46627 22.4143 6.06001 22.1381 4.9551 21.5857C3.87529 21.0332 3.07172 20.3677 2.54437 19.5893C2.04214 18.7857 1.79102 18.0449 1.79102 17.3669ZM19.4698 4.40924C19.4698 3.90701 19.633 3.49266 19.9594 3.16621C20.2859 2.83976 20.6877 2.67653 21.1648 2.67653C21.6168 2.67653 22.006 2.83976 22.3325 3.16621C22.659 3.49266 22.8222 3.90701 22.8222 4.40924C22.8222 4.88636 22.659 5.28815 22.3325 5.6146C22.006 5.94106 21.6168 6.10428 21.1648 6.10428C20.6877 6.10428 20.2859 5.94106 19.9594 5.6146C19.633 5.28815 19.4698 4.88636 19.4698 4.40924ZM20.0348 22C19.8339 22 19.7334 21.887 19.7334 21.661V8.47734C19.7334 8.25133 19.8339 8.13833 20.0348 8.13833H20.2231C20.9514 8.13833 21.5164 8.35178 21.9182 8.77868C22.3451 9.20558 22.5585 9.85848 22.5585 10.7374V21.661C22.5585 21.887 22.4581 22 22.2572 22H20.0348ZM29.1762 19.5139H35.6927C35.8685 19.5139 35.9564 19.6269 35.9564 19.8529V21.661C35.9564 21.887 35.8685 22 35.6927 22H25.9745C25.7736 22 25.6731 21.887 25.6731 21.661V20.2673C25.6731 20.0413 25.7108 19.8655 25.7861 19.7399C25.8615 19.5893 25.987 19.3884 26.1628 19.1373L32.943 10.6244H26.1628C25.9619 10.6244 25.8615 10.5239 25.8615 10.3231V8.47734C25.8615 8.25133 25.9619 8.13833 26.1628 8.13833H33.96C34.6883 8.13833 35.203 8.289 35.5044 8.59034C35.8057 8.89168 35.9564 9.43158 35.9564 10.21C35.9564 10.5365 35.9187 10.8002 35.8434 11.0011C35.7681 11.202 35.6299 11.4154 35.429 11.6414L29.1762 19.5139ZM38.9289 4.40924C38.9289 3.90701 39.0921 3.49266 39.4186 3.16621C39.745 2.83976 40.1468 2.67653 40.6239 2.67653C41.0759 2.67653 41.4652 2.83976 41.7916 3.16621C42.1181 3.49266 42.2813 3.90701 42.2813 4.40924C42.2813 4.88636 42.1181 5.28815 41.7916 5.6146C41.4652 5.94106 41.0759 6.10428 40.6239 6.10428C40.1468 6.10428 39.745 5.94106 39.4186 5.6146C39.0921 5.28815 38.9289 4.88636 38.9289 4.40924ZM39.4939 22C39.293 22 39.1926 21.887 39.1926 21.661V8.47734C39.1926 8.25133 39.293 8.13833 39.4939 8.13833H39.6822C40.4105 8.13833 40.9755 8.35178 41.3773 8.77868C41.8042 9.20558 42.0176 9.85848 42.0176 10.7374V21.661C42.0176 21.887 41.9172 22 41.7163 22H39.4939ZM48.7484 20.1543V21.661C48.7484 21.887 48.6605 22 48.4847 22H46.2623C46.0614 22 45.961 21.887 45.961 21.661V1.39583C45.961 1.16983 46.0614 1.05683 46.2623 1.05683H46.4506C47.9825 1.05683 48.7484 1.92318 48.7484 3.65589V10.097C49.2004 9.41903 49.8156 8.86657 50.5941 8.43967C51.3976 8.01277 52.3393 7.79932 53.4191 7.79932C55.3779 7.79932 56.9348 8.46478 58.0899 9.79571C59.2702 11.1266 59.8603 12.8844 59.8603 15.0692C59.8603 16.4001 59.6092 17.618 59.1069 18.7229C58.6047 19.8278 57.8765 20.7067 56.9222 21.3597C55.968 22.0126 54.8128 22.339 53.4568 22.339C52.4774 22.339 51.5734 22.1632 50.7447 21.8117C49.9161 21.435 49.2506 20.8825 48.7484 20.1543ZM52.8918 19.7023C53.5196 19.7023 54.1474 19.5516 54.7752 19.2503C55.403 18.9489 55.9178 18.4592 56.3195 17.7812C56.7464 17.1032 56.9599 16.1992 56.9599 15.0692C56.9599 13.5122 56.5455 12.3571 55.7169 11.6037C54.9133 10.8504 53.959 10.4737 52.8541 10.4737C52.2766 10.4737 51.6613 10.5993 51.0084 10.8504C50.3806 11.1015 49.8407 11.5661 49.3887 12.2441C48.9618 12.897 48.7484 13.8387 48.7484 15.0692C48.7484 16.2745 48.9744 17.2162 49.4264 17.8942C49.8784 18.5723 50.4183 19.0494 51.0461 19.3256C51.699 19.5767 52.3142 19.7023 52.8918 19.7023ZM69.6533 22.339C67.5188 22.339 65.8112 21.6861 64.5305 20.3803C63.2749 19.0494 62.6471 17.2916 62.6471 15.1068C62.6471 12.9221 63.2749 11.1643 64.5305 9.83337C65.8112 8.47734 67.5062 7.79932 69.6156 7.79932C71.7501 7.79932 73.4577 8.47734 74.7384 9.83337C76.0191 11.1643 76.6594 12.9096 76.6594 15.0692C76.6594 17.2539 76.0191 19.0117 74.7384 20.3426C73.4828 21.6735 71.7878 22.339 69.6533 22.339ZM69.6156 19.6646C70.7959 19.6646 71.7752 19.2879 72.5537 18.5346C73.3573 17.7812 73.759 16.6386 73.759 15.1068C73.759 13.6252 73.3573 12.4827 72.5537 11.6791C71.7752 10.8755 70.7959 10.4737 69.6156 10.4737C68.4102 10.4737 67.4309 10.8755 66.6775 11.6791C65.9242 12.4827 65.5475 13.6252 65.5475 15.1068C65.5475 16.5884 65.9242 17.7185 66.6775 18.4969C67.4309 19.2754 68.4102 19.6646 69.6156 19.6646ZM84.549 16.3875L81.3096 21.5857C81.1338 21.8619 80.9078 22 80.6316 22H78.4846C78.3841 22 78.3213 21.9623 78.2962 21.887C78.2711 21.8117 78.2837 21.7363 78.3339 21.661L82.8163 14.6925L78.8989 8.43967C78.7482 8.23878 78.7985 8.13833 79.0496 8.13833H80.0289C80.7572 8.13833 81.3096 8.289 81.6863 8.59034C82.0881 8.86657 82.5275 9.40647 83.0047 10.21L84.6244 12.6961L87.1858 8.55267C87.3616 8.27645 87.6252 8.13833 87.9768 8.13833H90.0108C90.2117 8.13833 90.262 8.23878 90.1615 8.43967L86.3947 14.5042L90.9525 21.661C91.0027 21.7363 91.0153 21.8117 90.9902 21.887C90.9651 21.9623 90.9023 22 90.8019 22H88.5795C88.253 22 88.0145 21.8619 87.8638 21.5857L84.549 16.3875Z"/>
        </mask>
        <path d="M1.79102 17.3669C1.79102 16.8647 1.95425 16.6135 2.2807 16.6135C2.45648 16.6135 2.61971 16.7014 2.77038 16.8772C3.52373 17.7812 4.37753 18.4969 5.33177 19.0243C6.31113 19.5265 7.49138 19.7776 8.87252 19.7776C10.4295 19.7776 11.6348 19.4763 12.4886 18.8736C13.3424 18.2458 13.7693 17.4046 13.7693 16.3499C13.7693 15.5965 13.4931 14.9938 12.9406 14.5418C12.3882 14.0647 11.685 13.6629 10.8312 13.3365C9.97744 13.01 9.06086 12.6836 8.0815 12.3571C7.10215 12.0306 6.18557 11.6414 5.33177 11.1894C4.47797 10.7123 3.77484 10.097 3.22239 9.34369C2.66993 8.59034 2.3937 7.61098 2.3937 6.40562C2.3937 5.22537 2.69504 4.20835 3.29772 3.35455C3.92552 2.50075 4.76676 1.84785 5.82145 1.39583C6.87614 0.918712 8.0815 0.68015 9.43754 0.68015C10.4671 0.68015 11.3963 0.768042 12.2249 0.943825C13.0787 1.11961 13.8572 1.37072 14.5603 1.69718C15.8159 2.14919 16.293 2.90254 15.9917 3.95723L15.8034 4.71058C15.7531 4.9617 15.6527 5.08726 15.502 5.08726C15.4016 5.08726 15.2132 5.01192 14.937 4.86125C14.1585 4.35902 13.2922 3.96979 12.3379 3.69356C11.4088 3.39222 10.4294 3.24155 9.39987 3.24155C8.21962 3.24155 7.24026 3.50522 6.4618 4.03257C5.68334 4.55991 5.2941 5.30071 5.2941 6.25495C5.2941 7.03342 5.57033 7.66121 6.12279 8.13833C6.67525 8.61545 7.37838 9.01724 8.23217 9.34369C9.08597 9.64503 10.0026 9.95893 10.9819 10.2854C11.9613 10.6118 12.8778 11.0011 13.7316 11.4531C14.5854 11.88 15.2886 12.4575 15.841 13.1858C16.3935 13.914 16.6697 14.8557 16.6697 16.0109C16.6697 17.9193 16.0043 19.4637 14.6733 20.644C13.3675 21.8242 11.5344 22.4143 9.17386 22.4143C7.46627 22.4143 6.06001 22.1381 4.9551 21.5857C3.87529 21.0332 3.07172 20.3677 2.54437 19.5893C2.04214 18.7857 1.79102 18.0449 1.79102 17.3669ZM19.4698 4.40924C19.4698 3.90701 19.633 3.49266 19.9594 3.16621C20.2859 2.83976 20.6877 2.67653 21.1648 2.67653C21.6168 2.67653 22.006 2.83976 22.3325 3.16621C22.659 3.49266 22.8222 3.90701 22.8222 4.40924C22.8222 4.88636 22.659 5.28815 22.3325 5.6146C22.006 5.94106 21.6168 6.10428 21.1648 6.10428C20.6877 6.10428 20.2859 5.94106 19.9594 5.6146C19.633 5.28815 19.4698 4.88636 19.4698 4.40924ZM20.0348 22C19.8339 22 19.7334 21.887 19.7334 21.661V8.47734C19.7334 8.25133 19.8339 8.13833 20.0348 8.13833H20.2231C20.9514 8.13833 21.5164 8.35178 21.9182 8.77868C22.3451 9.20558 22.5585 9.85848 22.5585 10.7374V21.661C22.5585 21.887 22.4581 22 22.2572 22H20.0348ZM29.1762 19.5139H35.6927C35.8685 19.5139 35.9564 19.6269 35.9564 19.8529V21.661C35.9564 21.887 35.8685 22 35.6927 22H25.9745C25.7736 22 25.6731 21.887 25.6731 21.661V20.2673C25.6731 20.0413 25.7108 19.8655 25.7861 19.7399C25.8615 19.5893 25.987 19.3884 26.1628 19.1373L32.943 10.6244H26.1628C25.9619 10.6244 25.8615 10.5239 25.8615 10.3231V8.47734C25.8615 8.25133 25.9619 8.13833 26.1628 8.13833H33.96C34.6883 8.13833 35.203 8.289 35.5044 8.59034C35.8057 8.89168 35.9564 9.43158 35.9564 10.21C35.9564 10.5365 35.9187 10.8002 35.8434 11.0011C35.7681 11.202 35.6299 11.4154 35.429 11.6414L29.1762 19.5139ZM38.9289 4.40924C38.9289 3.90701 39.0921 3.49266 39.4186 3.16621C39.745 2.83976 40.1468 2.67653 40.6239 2.67653C41.0759 2.67653 41.4652 2.83976 41.7916 3.16621C42.1181 3.49266 42.2813 3.90701 42.2813 4.40924C42.2813 4.88636 42.1181 5.28815 41.7916 5.6146C41.4652 5.94106 41.0759 6.10428 40.6239 6.10428C40.1468 6.10428 39.745 5.94106 39.4186 5.6146C39.0921 5.28815 38.9289 4.88636 38.9289 4.40924ZM39.4939 22C39.293 22 39.1926 21.887 39.1926 21.661V8.47734C39.1926 8.25133 39.293 8.13833 39.4939 8.13833H39.6822C40.4105 8.13833 40.9755 8.35178 41.3773 8.77868C41.8042 9.20558 42.0176 9.85848 42.0176 10.7374V21.661C42.0176 21.887 41.9172 22 41.7163 22H39.4939ZM48.7484 20.1543V21.661C48.7484 21.887 48.6605 22 48.4847 22H46.2623C46.0614 22 45.961 21.887 45.961 21.661V1.39583C45.961 1.16983 46.0614 1.05683 46.2623 1.05683H46.4506C47.9825 1.05683 48.7484 1.92318 48.7484 3.65589V10.097C49.2004 9.41903 49.8156 8.86657 50.5941 8.43967C51.3976 8.01277 52.3393 7.79932 53.4191 7.79932C55.3779 7.79932 56.9348 8.46478 58.0899 9.79571C59.2702 11.1266 59.8603 12.8844 59.8603 15.0692C59.8603 16.4001 59.6092 17.618 59.1069 18.7229C58.6047 19.8278 57.8765 20.7067 56.9222 21.3597C55.968 22.0126 54.8128 22.339 53.4568 22.339C52.4774 22.339 51.5734 22.1632 50.7447 21.8117C49.9161 21.435 49.2506 20.8825 48.7484 20.1543ZM52.8918 19.7023C53.5196 19.7023 54.1474 19.5516 54.7752 19.2503C55.403 18.9489 55.9178 18.4592 56.3195 17.7812C56.7464 17.1032 56.9599 16.1992 56.9599 15.0692C56.9599 13.5122 56.5455 12.3571 55.7169 11.6037C54.9133 10.8504 53.959 10.4737 52.8541 10.4737C52.2766 10.4737 51.6613 10.5993 51.0084 10.8504C50.3806 11.1015 49.8407 11.5661 49.3887 12.2441C48.9618 12.897 48.7484 13.8387 48.7484 15.0692C48.7484 16.2745 48.9744 17.2162 49.4264 17.8942C49.8784 18.5723 50.4183 19.0494 51.0461 19.3256C51.699 19.5767 52.3142 19.7023 52.8918 19.7023ZM69.6533 22.339C67.5188 22.339 65.8112 21.6861 64.5305 20.3803C63.2749 19.0494 62.6471 17.2916 62.6471 15.1068C62.6471 12.9221 63.2749 11.1643 64.5305 9.83337C65.8112 8.47734 67.5062 7.79932 69.6156 7.79932C71.7501 7.79932 73.4577 8.47734 74.7384 9.83337C76.0191 11.1643 76.6594 12.9096 76.6594 15.0692C76.6594 17.2539 76.0191 19.0117 74.7384 20.3426C73.4828 21.6735 71.7878 22.339 69.6533 22.339ZM69.6156 19.6646C70.7959 19.6646 71.7752 19.2879 72.5537 18.5346C73.3573 17.7812 73.759 16.6386 73.759 15.1068C73.759 13.6252 73.3573 12.4827 72.5537 11.6791C71.7752 10.8755 70.7959 10.4737 69.6156 10.4737C68.4102 10.4737 67.4309 10.8755 66.6775 11.6791C65.9242 12.4827 65.5475 13.6252 65.5475 15.1068C65.5475 16.5884 65.9242 17.7185 66.6775 18.4969C67.4309 19.2754 68.4102 19.6646 69.6156 19.6646ZM84.549 16.3875L81.3096 21.5857C81.1338 21.8619 80.9078 22 80.6316 22H78.4846C78.3841 22 78.3213 21.9623 78.2962 21.887C78.2711 21.8117 78.2837 21.7363 78.3339 21.661L82.8163 14.6925L78.8989 8.43967C78.7482 8.23878 78.7985 8.13833 79.0496 8.13833H80.0289C80.7572 8.13833 81.3096 8.289 81.6863 8.59034C82.0881 8.86657 82.5275 9.40647 83.0047 10.21L84.6244 12.6961L87.1858 8.55267C87.3616 8.27645 87.6252 8.13833 87.9768 8.13833H90.0108C90.2117 8.13833 90.262 8.23878 90.1615 8.43967L86.3947 14.5042L90.9525 21.661C91.0027 21.7363 91.0153 21.8117 90.9902 21.887C90.9651 21.9623 90.9023 22 90.8019 22H88.5795C88.253 22 88.0145 21.8619 87.8638 21.5857L84.549 16.3875Z" fill="url(#paint0_angular_10_6)"/>
        <path d="M2.77038 16.8772L3.22256 16.5004L3.21724 16.4942L2.77038 16.8772ZM5.33177 19.0243L5.04709 19.5394L5.05508 19.5438L5.0632 19.548L5.33177 19.0243ZM12.4886 18.8736L12.8281 19.3545L12.8373 19.3478L12.4886 18.8736ZM12.9406 14.5418L12.5559 14.9873L12.5619 14.9924L12.5679 14.9973L12.9406 14.5418ZM10.8312 13.3365L10.621 13.8862L10.8312 13.3365ZM8.0815 12.3571L7.89539 12.9155L8.0815 12.3571ZM5.33177 11.1894L5.04459 11.7033L5.05639 11.7096L5.33177 11.1894ZM3.22239 9.34369L3.697 8.99564L3.22239 9.34369ZM3.29772 3.35455L2.82346 3.00583L2.81689 3.01514L3.29772 3.35455ZM5.82145 1.39583L6.05334 1.93691L6.06403 1.93207L5.82145 1.39583ZM12.2249 0.943825L12.1028 1.51958L12.1063 1.52029L12.2249 0.943825ZM14.5603 1.69718L14.3125 2.231L14.3363 2.24205L14.361 2.25094L14.5603 1.69718ZM15.9917 3.95723L15.4258 3.79554L15.4231 3.80497L15.4207 3.81448L15.9917 3.95723ZM15.8034 4.71058L15.2324 4.56784L15.229 4.58142L15.2262 4.59516L15.8034 4.71058ZM14.937 4.86125L14.6179 5.35581L14.6361 5.36756L14.6552 5.37794L14.937 4.86125ZM12.3379 3.69356L12.1564 4.2534L12.1653 4.2563L12.1743 4.2589L12.3379 3.69356ZM6.12279 8.13833L6.50748 7.6929V7.6929L6.12279 8.13833ZM8.23217 9.34369L8.02198 9.89344L8.0291 9.89616L8.03629 9.8987L8.23217 9.34369ZM10.9819 10.2854L11.168 9.72703L10.9819 10.2854ZM13.7316 11.4531L13.4562 11.9734L13.4684 11.9795L13.7316 11.4531ZM15.841 13.1858L16.3099 12.8301L15.841 13.1858ZM14.6733 20.644L14.2828 20.2036L14.2787 20.2073L14.6733 20.644ZM4.9551 21.5857L4.68701 22.1096L4.69189 22.1121L4.9551 21.5857ZM2.54437 19.5893L2.04528 19.9012L2.05102 19.9104L2.05709 19.9194L2.54437 19.5893ZM2.37958 17.3669C2.37958 17.2714 2.3875 17.205 2.39683 17.1619C2.40625 17.1185 2.4144 17.1111 2.40691 17.1226C2.39684 17.1381 2.37319 17.1648 2.33503 17.1843C2.29898 17.2028 2.27516 17.2021 2.2807 17.2021V16.025C1.93956 16.025 1.62127 16.1714 1.41997 16.4811C1.24717 16.747 1.20246 17.0708 1.20246 17.3669H2.37958ZM2.2807 17.2021C2.275 17.2021 2.26853 17.2013 2.26247 17.1997C2.25657 17.1982 2.25424 17.1968 2.25592 17.1977C2.26007 17.1999 2.28403 17.2142 2.32351 17.2602L3.21724 16.4942C2.99248 16.232 2.67884 16.025 2.2807 16.025V17.2021ZM2.31824 17.254C3.11461 18.2096 4.02402 18.974 5.04709 19.5394L5.61645 18.5091C4.73104 18.0198 3.93285 17.3528 3.22252 16.5004L2.31824 17.254ZM5.0632 19.548C6.14416 20.1023 7.42125 20.3662 8.87252 20.3662V19.1891C7.56151 19.1891 6.4781 18.9507 5.60034 18.5006L5.0632 19.548ZM8.87252 20.3662C10.4947 20.3662 11.8371 20.0539 12.828 19.3544L12.1492 18.3928C11.4325 18.8987 10.3642 19.1891 8.87252 19.1891V20.3662ZM12.8373 19.3478C13.841 18.6097 14.3579 17.5928 14.3579 16.3499H13.1808C13.1808 17.2163 12.8438 17.8819 12.14 18.3994L12.8373 19.3478ZM14.3579 16.3499C14.3579 15.4312 14.0109 14.657 13.3133 14.0863L12.5679 14.9973C12.9753 15.3306 13.1808 15.7618 13.1808 16.3499H14.3579ZM13.3253 14.0964C12.71 13.565 11.9436 13.1317 11.0414 12.7867L10.621 13.8862C11.4265 14.1942 12.0663 14.5644 12.5559 14.9873L13.3253 14.0964ZM11.0414 12.7867C10.1787 12.4569 9.25405 12.1276 8.26762 11.7987L7.89539 12.9155C8.86767 13.2395 9.77614 13.5631 10.621 13.8862L11.0414 12.7867ZM8.26762 11.7987C7.31694 11.4819 6.43042 11.1051 5.60715 10.6692L5.05639 11.7096C5.94072 12.1777 6.88736 12.5794 7.89539 12.9155L8.26762 11.7987ZM5.61888 10.6756C4.8352 10.2377 4.19722 9.67776 3.697 8.99564L2.74777 9.69174C3.35247 10.5163 4.12074 11.1869 5.04466 11.7032L5.61888 10.6756ZM3.697 8.99564C3.23753 8.36909 2.98226 7.5222 2.98226 6.40562H1.80514C1.80514 7.69977 2.10233 8.81159 2.74777 9.69174L3.697 8.99564ZM2.98226 6.40562C2.98226 5.33057 3.25484 4.43589 3.77855 3.69396L2.81689 3.01514C2.13524 3.98081 1.80514 5.12018 1.80514 6.40562H2.98226ZM3.77189 3.7032C4.33239 2.94092 5.08683 2.351 6.05329 1.9368L5.58961 0.854866C4.44669 1.34469 3.51864 2.06058 2.82355 3.00589L3.77189 3.7032ZM6.06403 1.93207C7.03054 1.49484 8.15096 1.26871 9.43754 1.26871V0.0915945C8.01205 0.0915945 6.72174 0.342581 5.57887 0.859596L6.06403 1.93207ZM9.43754 1.26871C10.4345 1.26871 11.3218 1.35389 12.1028 1.51957L12.3471 0.368079C11.4707 0.182191 10.4997 0.0915945 9.43754 0.0915945V1.26871ZM12.1063 1.52029C12.9209 1.68802 13.6554 1.92591 14.3125 2.231L14.8082 1.16335C14.059 0.815539 13.2365 0.551197 12.3436 0.367359L12.1063 1.52029ZM14.361 2.25094C14.9241 2.45366 15.2213 2.69288 15.3626 2.91611C15.4912 3.11914 15.5418 3.38941 15.4258 3.79554L16.5576 4.11892C16.7429 3.47035 16.7056 2.8366 16.3571 2.28629C16.0213 1.75616 15.4522 1.39271 14.7597 1.14341L14.361 2.25094ZM15.4207 3.81448L15.2324 4.56784L16.3743 4.85333L16.5627 4.09998L15.4207 3.81448ZM15.2262 4.59516C15.219 4.63139 15.2124 4.65043 15.2098 4.65679C15.2071 4.66354 15.2118 4.64919 15.2308 4.62542C15.2511 4.59996 15.2873 4.56485 15.3424 4.53729C15.3986 4.50917 15.4552 4.4987 15.502 4.4987V5.67581C15.7695 5.67581 15.9967 5.55236 16.1499 5.36076C16.2838 5.19348 16.3467 4.99483 16.3805 4.82601L15.2262 4.59516ZM15.502 4.4987C15.5449 4.4987 15.5674 4.50589 15.5588 4.50363C15.5532 4.50218 15.5358 4.497 15.504 4.4843C15.4399 4.45864 15.3463 4.41409 15.2188 4.34456L14.6552 5.37794C14.8039 5.45909 14.9427 5.52754 15.0668 5.57722C15.1743 5.62019 15.3338 5.67581 15.502 5.67581V4.4987ZM15.2561 4.36669C14.4262 3.83127 13.5068 3.4192 12.5016 3.12821L12.1743 4.2589C13.0775 4.52037 13.8909 4.88677 14.6179 5.35581L15.2561 4.36669ZM12.5195 3.13371C11.5286 2.81234 10.4878 2.65299 9.39987 2.65299V3.8301C10.3711 3.8301 11.289 3.97209 12.1564 4.2534L12.5195 3.13371ZM9.39987 2.65299C8.13204 2.65299 7.02985 2.93687 6.13171 3.54529L6.79189 4.51984C7.45067 4.07357 8.3072 3.8301 9.39987 3.8301V2.65299ZM6.13171 3.54529C5.18873 4.18408 4.70555 5.10896 4.70555 6.25495H5.88266C5.88266 5.49246 6.17794 4.93574 6.79189 4.51984L6.13171 3.54529ZM4.70555 6.25495C4.70555 7.19156 5.04673 7.98668 5.7381 8.58376L6.50748 7.6929C6.09393 7.33574 5.88266 6.87527 5.88266 6.25495H4.70555ZM5.7381 8.58376C6.35341 9.11517 7.11983 9.5485 8.02198 9.89344L8.44237 8.79395C7.63692 8.48599 6.99709 8.11574 6.50748 7.6929L5.7381 8.58376ZM8.03629 9.8987C8.89375 10.2013 9.81361 10.5163 10.7958 10.8437L11.168 9.72703C10.1915 9.40152 9.2782 9.08874 8.42806 8.78869L8.03629 9.8987ZM10.7958 10.8437C11.7465 11.1606 12.633 11.5374 13.4563 11.9732L14.007 10.9329C13.1227 10.4647 12.1761 10.063 11.168 9.72703L10.7958 10.8437ZM13.4684 11.9795C14.2452 12.3679 14.8767 12.8884 15.3721 13.5415L16.3099 12.8301C15.7005 12.0267 14.9257 11.3921 13.9949 10.9267L13.4684 11.9795ZM15.3721 13.5415C15.8285 14.1431 16.0812 14.9499 16.0812 16.0109H17.2583C17.2583 14.7616 16.9585 13.685 16.3099 12.8301L15.3721 13.5415ZM16.0812 16.0109C16.0812 17.7648 15.4778 19.1439 14.2828 20.2036L15.0638 21.0843C16.5307 19.7835 17.2583 18.0739 17.2583 16.0109H16.0812ZM14.2787 20.2073C13.1134 21.2605 11.4391 21.8258 9.17386 21.8258V23.0029C11.6297 23.0029 13.6216 22.3879 15.068 21.0806L14.2787 20.2073ZM9.17386 21.8258C7.52467 21.8258 6.21639 21.5583 5.21831 21.0592L4.69189 22.1121C5.90364 22.718 7.40787 23.0029 9.17386 23.0029V21.8258ZM5.22317 21.0617C4.20668 20.5416 3.48959 19.9352 3.03165 19.2592L2.05709 19.9194C2.65385 20.8003 3.54391 21.5248 4.68702 22.1096L5.22317 21.0617ZM3.04347 19.2773C2.57743 18.5317 2.37958 17.899 2.37958 17.3669H1.20246C1.20246 18.1908 1.50684 19.0397 2.04528 19.9012L3.04347 19.2773ZM19.9594 3.16621L20.3756 3.58238V3.58238L19.9594 3.16621ZM22.3325 3.16621L21.9163 3.58238L21.9163 3.58238L22.3325 3.16621ZM22.3325 5.6146L21.9163 5.19843L21.9163 5.19843L22.3325 5.6146ZM19.9594 5.6146L20.3756 5.19843V5.19843L19.9594 5.6146ZM21.9182 8.77868L21.4896 9.18206L21.4957 9.18855L21.502 9.19485L21.9182 8.77868ZM20.0583 4.40924C20.0583 4.04799 20.1698 3.78821 20.3756 3.58238L19.5433 2.75004C19.0962 3.19711 18.8812 3.76603 18.8812 4.40924H20.0583ZM20.3756 3.58238C20.5876 3.37037 20.8379 3.26509 21.1648 3.26509V2.08798C20.5374 2.08798 19.9842 2.30915 19.5433 2.75004L20.3756 3.58238ZM21.1648 3.26509C21.457 3.26509 21.6976 3.36366 21.9163 3.58238L22.7487 2.75004C22.3145 2.31586 21.7766 2.08798 21.1648 2.08798V3.26509ZM21.9163 3.58238C22.1222 3.78821 22.2336 4.04799 22.2336 4.40924H23.4107C23.4107 3.76603 23.1957 3.19711 22.7487 2.75004L21.9163 3.58238ZM22.2336 4.40924C22.2336 4.73611 22.1283 4.98642 21.9163 5.19843L22.7487 6.03078C23.1896 5.58989 23.4107 5.03662 23.4107 4.40924H22.2336ZM21.9163 5.19843C21.6976 5.41715 21.457 5.51573 21.1648 5.51573V6.69284C21.7766 6.69284 22.3145 6.46496 22.7487 6.03078L21.9163 5.19843ZM21.1648 5.51573C20.8379 5.51573 20.5876 5.41045 20.3756 5.19843L19.5433 6.03078C19.9842 6.47166 20.5374 6.69284 21.1648 6.69284V5.51573ZM20.3756 5.19843C20.1636 4.98642 20.0583 4.73611 20.0583 4.40924H18.8812C18.8812 5.03662 19.1024 5.58989 19.5433 6.03078L20.3756 5.19843ZM20.0348 21.4114C20.0442 21.4114 20.1536 21.4173 20.2487 21.5242C20.332 21.618 20.322 21.6992 20.322 21.661H19.1449C19.1449 21.8488 19.1851 22.0995 19.3689 22.3063C19.5644 22.5262 19.8245 22.5886 20.0348 22.5886V21.4114ZM20.322 21.661V8.47734H19.1449V21.661H20.322ZM20.322 8.47734C20.322 8.4391 20.332 8.52035 20.2487 8.6141C20.1536 8.72105 20.0442 8.72689 20.0348 8.72689V7.54978C19.8245 7.54978 19.5644 7.61211 19.3689 7.83207C19.1851 8.03882 19.1449 8.28957 19.1449 8.47734H20.322ZM20.0348 8.72689H20.2231V7.54978H20.0348V8.72689ZM20.2231 8.72689C20.8311 8.72689 21.2248 8.90079 21.4896 9.18206L22.3467 8.37531C21.8079 7.80277 21.0716 7.54978 20.2231 7.54978V8.72689ZM21.502 9.19485C21.7767 9.4696 21.97 9.94344 21.97 10.7374H23.1471C23.1471 9.77353 22.9134 8.94156 22.3343 8.36251L21.502 9.19485ZM21.97 10.7374V21.661H23.1471V10.7374H21.97ZM21.97 21.661C21.97 21.6992 21.9599 21.618 22.0433 21.5242C22.1384 21.4173 22.2478 21.4114 22.2572 21.4114V22.5886C22.4675 22.5886 22.7275 22.5262 22.9231 22.3063C23.1068 22.0995 23.1471 21.8488 23.1471 21.661H21.97ZM22.2572 21.4114H20.0348V22.5886H22.2572V21.4114ZM29.1762 19.5139L28.7154 19.1479L27.9572 20.1025H29.1762V19.5139ZM25.7861 19.7399L26.2908 20.0428L26.3025 20.0234L26.3126 20.0032L25.7861 19.7399ZM26.1628 19.1373L25.7024 18.7706L25.6911 18.7848L25.6807 18.7997L26.1628 19.1373ZM32.943 10.6244L33.4034 10.9911L34.1642 10.0358H32.943V10.6244ZM35.8434 11.0011L36.3945 11.2077V11.2077L35.8434 11.0011ZM35.429 11.6414L34.9892 11.2504L34.9783 11.2626L34.9682 11.2754L35.429 11.6414ZM29.1762 20.1025H35.6927V18.9254H29.1762V20.1025ZM35.6927 20.1025C35.6745 20.1025 35.6311 20.0996 35.5762 20.0761C35.5179 20.0511 35.4652 20.0105 35.4259 19.96C35.3548 19.8686 35.3678 19.8 35.3678 19.8529H36.5449C36.5449 19.6799 36.5141 19.4418 36.3551 19.2374C36.1742 19.0048 35.9164 18.9254 35.6927 18.9254V20.1025ZM35.3678 19.8529V21.661H36.5449V19.8529H35.3678ZM35.3678 21.661C35.3678 21.7139 35.3548 21.6454 35.4259 21.5539C35.4652 21.5034 35.5179 21.4629 35.5762 21.4378C35.6311 21.4143 35.6745 21.4114 35.6927 21.4114V22.5886C35.9164 22.5886 36.1742 22.5091 36.3551 22.2766C36.5141 22.0721 36.5449 21.834 36.5449 21.661H35.3678ZM35.6927 21.4114H25.9745V22.5886H35.6927V21.4114ZM25.9745 21.4114C25.9839 21.4114 26.0933 21.4173 26.1884 21.5242C26.2717 21.618 26.2617 21.6992 26.2617 21.661H25.0846C25.0846 21.8488 25.1248 22.0995 25.3086 22.3063C25.5041 22.5262 25.7642 22.5886 25.9745 22.5886V21.4114ZM26.2617 21.661V20.2673H25.0846V21.661H26.2617ZM26.2617 20.2673C26.2617 20.1857 26.2686 20.1278 26.2769 20.0893C26.2851 20.0508 26.2931 20.039 26.2908 20.0428L25.2815 19.4371C25.1291 19.691 25.0846 19.9879 25.0846 20.2673H26.2617ZM26.3126 20.0032C26.3686 19.8912 26.4747 19.7181 26.645 19.4748L25.6807 18.7997C25.4994 19.0587 25.3544 19.2874 25.2597 19.4767L26.3126 20.0032ZM26.6232 19.5039L33.4034 10.9911L32.4826 10.2577L25.7024 18.7706L26.6232 19.5039ZM32.943 10.0358H26.1628V11.2129H32.943V10.0358ZM26.1628 10.0358C26.1531 10.0358 26.2539 10.0338 26.353 10.1329C26.4521 10.232 26.45 10.3328 26.45 10.3231H25.2729C25.2729 10.5142 25.3211 10.7657 25.5206 10.9652C25.7202 11.1648 25.9717 11.2129 26.1628 11.2129V10.0358ZM26.45 10.3231V8.47734H25.2729V10.3231H26.45ZM26.45 8.47734C26.45 8.4391 26.46 8.52035 26.3767 8.6141C26.2816 8.72105 26.1722 8.72689 26.1628 8.72689V7.54978C25.9525 7.54978 25.6924 7.61211 25.4969 7.83207C25.3131 8.03882 25.2729 8.28957 25.2729 8.47734H26.45ZM26.1628 8.72689H33.96V7.54978H26.1628V8.72689ZM33.96 8.72689C34.6356 8.72689 34.9535 8.87183 35.0882 9.00651L35.9206 8.17417C35.4526 7.70618 34.7409 7.54978 33.96 7.54978V8.72689ZM35.0882 9.00651C35.2175 9.13577 35.3678 9.47065 35.3678 10.21H36.5449C36.5449 9.39252 36.394 8.64759 35.9206 8.17417L35.0882 9.00651ZM35.3678 10.21C35.3678 10.4989 35.3335 10.6847 35.2923 10.7944L36.3945 11.2077C36.504 10.9157 36.5449 10.5741 36.5449 10.21H35.3678ZM35.2923 10.7944C35.2505 10.9059 35.1601 11.058 34.9892 11.2504L35.8689 12.0324C36.0997 11.7728 36.2856 11.498 36.3945 11.2077L35.2923 10.7944ZM34.9682 11.2754L28.7154 19.1479L29.6371 19.88L35.8899 12.0075L34.9682 11.2754ZM39.4186 3.16621L39.8347 3.58238V3.58238L39.4186 3.16621ZM41.7916 3.16621L41.3755 3.58238V3.58238L41.7916 3.16621ZM41.7916 5.6146L41.3755 5.19843V5.19843L41.7916 5.6146ZM39.4186 5.6146L39.8347 5.19843V5.19843L39.4186 5.6146ZM41.3773 8.77868L40.9487 9.18206L40.9548 9.18855L40.9611 9.19485L41.3773 8.77868ZM39.5175 4.40924C39.5175 4.04799 39.6289 3.78821 39.8347 3.58238L39.0024 2.75004C38.5553 3.19711 38.3403 3.76603 38.3403 4.40924H39.5175ZM39.8347 3.58238C40.0468 3.37037 40.2971 3.26509 40.6239 3.26509V2.08798C39.9966 2.08798 39.4433 2.30915 39.0024 2.75004L39.8347 3.58238ZM40.6239 3.26509C40.9161 3.26509 41.1567 3.36366 41.3755 3.58238L42.2078 2.75004C41.7736 2.31586 41.2357 2.08798 40.6239 2.08798V3.26509ZM41.3755 3.58238C41.5813 3.78821 41.6928 4.04799 41.6928 4.40924H42.8699C42.8699 3.76603 42.6549 3.19711 42.2078 2.75004L41.3755 3.58238ZM41.6928 4.40924C41.6928 4.73611 41.5875 4.98642 41.3755 5.19843L42.2078 6.03078C42.6487 5.58989 42.8699 5.03662 42.8699 4.40924H41.6928ZM41.3755 5.19843C41.1567 5.41715 40.9161 5.51573 40.6239 5.51573V6.69284C41.2357 6.69284 41.7736 6.46496 42.2078 6.03078L41.3755 5.19843ZM40.6239 5.51573C40.2971 5.51573 40.0468 5.41045 39.8347 5.19843L39.0024 6.03078C39.4433 6.47166 39.9966 6.69284 40.6239 6.69284V5.51573ZM39.8347 5.19843C39.6227 4.98642 39.5175 4.73611 39.5175 4.40924H38.3403C38.3403 5.03662 38.5615 5.58989 39.0024 6.03078L39.8347 5.19843ZM39.4939 21.4114C39.5033 21.4114 39.6127 21.4173 39.7078 21.5242C39.7911 21.618 39.7811 21.6992 39.7811 21.661H38.604C38.604 21.8488 38.6442 22.0995 38.828 22.3063C39.0235 22.5262 39.2836 22.5886 39.4939 22.5886V21.4114ZM39.7811 21.661V8.47734H38.604V21.661H39.7811ZM39.7811 8.47734C39.7811 8.4391 39.7911 8.52035 39.7078 8.6141C39.6127 8.72105 39.5033 8.72689 39.4939 8.72689V7.54978C39.2836 7.54978 39.0235 7.61211 38.828 7.83207C38.6442 8.03882 38.604 8.28957 38.604 8.47734H39.7811ZM39.4939 8.72689H39.6822V7.54978H39.4939V8.72689ZM39.6822 8.72689C40.2902 8.72689 40.684 8.90079 40.9487 9.18206L41.8059 8.37531C41.267 7.80277 40.5308 7.54978 39.6822 7.54978V8.72689ZM40.9611 9.19485C41.2359 9.4696 41.4291 9.94344 41.4291 10.7374H42.6062C42.6062 9.77353 42.3725 8.94156 41.7935 8.36251L40.9611 9.19485ZM41.4291 10.7374V21.661H42.6062V10.7374H41.4291ZM41.4291 21.661C41.4291 21.6992 41.4191 21.618 41.5024 21.5242C41.5975 21.4173 41.7069 21.4114 41.7163 21.4114V22.5886C41.9266 22.5886 42.1867 22.5262 42.3822 22.3063C42.566 22.0995 42.6062 21.8488 42.6062 21.661H41.4291ZM41.7163 21.4114H39.4939V22.5886H41.7163V21.4114ZM48.7484 20.1543L49.2329 19.8201L48.1598 18.2642V20.1543H48.7484ZM48.7484 10.097H48.1598V12.0409L49.2381 10.4235L48.7484 10.097ZM50.5941 8.43967L50.3179 7.91986L50.3111 7.92362L50.5941 8.43967ZM58.0899 9.79571L57.6454 10.1815L57.6496 10.1862L58.0899 9.79571ZM59.1069 18.7229L58.5711 18.4794L59.1069 18.7229ZM56.9222 21.3597L56.5899 20.8739L56.9222 21.3597ZM50.7447 21.8117L50.5012 22.3475L50.508 22.3506L50.5149 22.3535L50.7447 21.8117ZM54.7752 19.2503L54.5205 18.7197L54.7752 19.2503ZM56.3195 17.7812L55.8215 17.4676L55.8173 17.4744L55.8132 17.4812L56.3195 17.7812ZM55.7169 11.6037L55.3143 12.0332L55.321 12.0392L55.7169 11.6037ZM51.0084 10.8504L50.7971 10.301L50.7898 10.3039L51.0084 10.8504ZM49.3887 12.2441L48.899 11.9176L48.8961 11.922L49.3887 12.2441ZM49.4264 17.8942L49.9161 17.5678L49.4264 17.8942ZM51.0461 19.3256L50.809 19.8643L50.8218 19.8699L50.8348 19.8749L51.0461 19.3256ZM48.1598 20.1543V21.661H49.3369V20.1543H48.1598ZM48.1598 21.661C48.1598 21.7139 48.1467 21.6454 48.2179 21.5539C48.2571 21.5034 48.3098 21.4629 48.3682 21.4378C48.423 21.4143 48.4664 21.4114 48.4847 21.4114V22.5886C48.7083 22.5886 48.9661 22.5091 49.147 22.2766C49.306 22.0721 49.3369 21.834 49.3369 21.661H48.1598ZM48.4847 21.4114H46.2623V22.5886H48.4847V21.4114ZM46.2623 21.4114C46.2717 21.4114 46.3811 21.4173 46.4762 21.5242C46.5595 21.618 46.5495 21.6992 46.5495 21.661H45.3724C45.3724 21.8488 45.4126 22.0995 45.5964 22.3063C45.7919 22.5262 46.052 22.5886 46.2623 22.5886V21.4114ZM46.5495 21.661V1.39583H45.3724V21.661H46.5495ZM46.5495 1.39583C46.5495 1.3576 46.5595 1.43885 46.4762 1.53259C46.3811 1.63955 46.2717 1.64538 46.2623 1.64538V0.46827C46.052 0.46827 45.7919 0.530604 45.5964 0.750563C45.4126 0.957311 45.3724 1.20807 45.3724 1.39583H46.5495ZM46.2623 1.64538H46.4506V0.46827H46.2623V1.64538ZM46.4506 1.64538C47.1057 1.64538 47.4951 1.82729 47.733 2.09642C47.9831 2.37937 48.1598 2.86363 48.1598 3.65589H49.3369C49.3369 2.71544 49.1306 1.90017 48.6149 1.31677C48.0869 0.719537 47.3274 0.46827 46.4506 0.46827V1.64538ZM48.1598 3.65589V10.097H49.3369V3.65589H48.1598ZM49.2381 10.4235C49.6328 9.83135 50.1742 9.34118 50.8771 8.95573L50.3111 7.92362C49.457 8.39196 48.7679 9.00671 48.2587 9.77057L49.2381 10.4235ZM50.8702 8.95943C51.5742 8.58543 52.4177 8.38788 53.4191 8.38788V7.21077C52.261 7.21077 51.2211 7.44011 50.3179 7.91991L50.8702 8.95943ZM53.4191 8.38788C55.2286 8.38788 56.6153 8.99463 57.6454 10.1815L58.5344 9.40992C57.2542 7.93494 55.5271 7.21077 53.4191 7.21077V8.38788ZM57.6496 10.1862C58.7138 11.3863 59.2717 12.9941 59.2717 15.0692H60.4488C60.4488 12.7748 59.8265 10.8669 58.5303 9.40521L57.6496 10.1862ZM59.2717 15.0692C59.2717 16.3243 59.0354 17.4581 58.5711 18.4794L59.6427 18.9665C60.183 17.7779 60.4488 16.4759 60.4488 15.0692H59.2717ZM58.5711 18.4794C58.111 19.4916 57.451 20.2847 56.5899 20.8739L57.2546 21.8454C58.302 21.1288 59.0984 20.1641 59.6427 18.9665L58.5711 18.4794ZM56.5899 20.8739C55.7495 21.4489 54.7152 21.7505 53.4568 21.7505V22.9276C54.9104 22.9276 56.1864 22.5762 57.2546 21.8454L56.5899 20.8739ZM53.4568 21.7505C52.5494 21.7505 51.7244 21.5879 50.9746 21.2698L50.5149 22.3535C51.4225 22.7385 52.4055 22.9276 53.4568 22.9276V21.7505ZM50.9883 21.2759C50.2538 20.942 49.6727 20.4579 49.2329 19.8201L48.2639 20.4884C48.8285 21.3071 49.5784 21.928 50.5012 22.3475L50.9883 21.2759ZM52.8918 20.2908C53.617 20.2908 54.3314 20.1161 55.0299 19.7809L54.5205 18.7197C53.9634 18.9871 53.4222 19.1137 52.8918 19.1137V20.2908ZM55.0299 19.7809C55.7759 19.4228 56.3729 18.8457 56.8259 18.0813L55.8132 17.4812C55.4626 18.0728 55.0301 18.4751 54.5205 18.7197L55.0299 19.7809ZM56.8176 18.0948C57.3232 17.2919 57.5484 16.2667 57.5484 15.0692H56.3713C56.3713 16.1317 56.1697 16.9146 55.8215 17.4676L56.8176 18.0948ZM57.5484 15.0692C57.5484 13.4133 57.1062 12.0713 56.1128 11.1683L55.321 12.0392C55.9849 12.6429 56.3713 13.6112 56.3713 15.0692H57.5484ZM56.1194 11.1744C55.2064 10.3184 54.1081 9.88517 52.8541 9.88517V11.0623C53.81 11.0623 54.6202 11.3824 55.3143 12.0331L56.1194 11.1744ZM52.8541 9.88517C52.1908 9.88517 51.5036 10.0293 50.7971 10.3011L51.2197 11.3997C51.819 11.1692 52.3623 11.0623 52.8541 11.0623V9.88517ZM50.7898 10.3039C50.0305 10.6077 49.4033 11.1612 48.899 11.9176L49.8784 12.5706C50.2782 11.971 50.7308 11.5954 51.227 11.3969L50.7898 10.3039ZM48.8961 11.922C48.3801 12.7112 48.1598 13.7849 48.1598 15.0692H49.3369C49.3369 13.8925 49.5435 13.0828 49.8813 12.5662L48.8961 11.922ZM48.1598 15.0692C48.1598 16.3382 48.3962 17.41 48.9367 18.2207L49.9161 17.5678C49.5525 17.0224 49.3369 16.2109 49.3369 15.0692H48.1598ZM48.9367 18.2207C49.4391 18.9743 50.0605 19.535 50.809 19.8643L51.2831 18.7869C50.776 18.5638 50.3177 18.1702 49.9161 17.5678L48.9367 18.2207ZM50.8348 19.8749C51.5413 20.1467 52.2285 20.2908 52.8918 20.2908V19.1137C52.3999 19.1137 51.8567 19.0068 51.2574 18.7763L50.8348 19.8749ZM64.5305 20.3803L64.1023 20.7843L64.1103 20.7924L64.5305 20.3803ZM64.5305 9.83337L64.1026 9.42926L64.1024 9.42949L64.5305 9.83337ZM74.7384 9.83337L74.3105 10.2375L74.3143 10.2415L74.7384 9.83337ZM74.7384 20.3426L74.3143 19.9345L74.3103 19.9387L74.7384 20.3426ZM72.5537 18.5346L72.1511 18.1052L72.1444 18.1116L72.5537 18.5346ZM72.5537 11.6791L72.1309 12.0886L72.1375 12.0953L72.5537 11.6791ZM66.6775 18.4969L66.2546 18.9062L66.6775 18.4969ZM69.6533 21.7505C67.6483 21.7505 66.1022 21.1422 64.9507 19.9682L64.1103 20.7924C65.5202 22.23 67.3893 22.9276 69.6533 22.9276V21.7505ZM64.9586 19.9764C63.8255 18.7753 63.2357 17.1723 63.2357 15.1068H62.0586C62.0586 17.4108 62.7243 19.3234 64.1024 20.7842L64.9586 19.9764ZM63.2357 15.1068C63.2357 13.0413 63.8255 11.4383 64.9586 10.2373L64.1024 9.42949C62.7243 10.8903 62.0586 12.8029 62.0586 15.1068H63.2357ZM64.9584 10.2375C66.1128 9.01512 67.6448 8.38788 69.6156 8.38788V7.21077C67.3676 7.21077 65.5095 7.93956 64.1026 9.42926L64.9584 10.2375ZM69.6156 8.38788C71.6138 8.38788 73.1574 9.0166 74.3105 10.2375L75.1663 9.42926C73.758 7.93808 71.8864 7.21077 69.6156 7.21077V8.38788ZM74.3143 10.2415C75.4718 11.4443 76.0709 13.0341 76.0709 15.0692H77.248C77.248 12.785 76.5664 10.8843 75.1625 9.42528L74.3143 10.2415ZM76.0709 15.0692C76.0709 17.1314 75.4705 18.733 74.3143 19.9345L75.1625 20.7507C76.5677 19.2904 77.248 17.3763 77.248 15.0692H76.0709ZM74.3103 19.9387C73.1846 21.132 71.6552 21.7505 69.6533 21.7505V22.9276C71.9204 22.9276 73.781 22.2151 75.1665 20.7465L74.3103 19.9387ZM69.6156 20.2532C70.9336 20.2532 72.0644 19.8271 72.963 18.9575L72.1444 18.1116C71.486 18.7488 70.6581 19.0761 69.6156 19.0761V20.2532ZM72.9562 18.964C73.9189 18.0614 74.3476 16.736 74.3476 15.1068H73.1705C73.1705 16.5413 72.7956 17.5011 72.1511 18.1052L72.9562 18.964ZM74.3476 15.1068C74.3476 13.5185 73.9144 12.2075 72.9698 11.2629L72.1375 12.0953C72.8001 12.7579 73.1705 13.732 73.1705 15.1068H74.3476ZM72.9764 11.2696C72.0805 10.3447 70.9454 9.88517 69.6156 9.88517V11.0623C70.6463 11.0623 71.47 11.4063 72.131 12.0886L72.9764 11.2696ZM69.6156 9.88517C68.2646 9.88517 67.1239 10.3424 66.2482 11.2765L67.1069 12.0816C67.7378 11.4086 68.5559 11.0623 69.6156 11.0623V9.88517ZM66.2482 11.2765C65.3615 12.2223 64.959 13.5283 64.959 15.1068H66.1361C66.1361 13.7221 66.4869 12.743 67.1069 12.0816L66.2482 11.2765ZM64.959 15.1068C64.959 16.684 65.361 17.9828 66.2546 18.9062L67.1005 18.0876C66.4874 17.4541 66.1361 16.4929 66.1361 15.1068H64.959ZM66.2546 18.9062C67.1319 19.8127 68.2706 20.2532 69.6156 20.2532V19.0761C68.5499 19.0761 67.7299 18.738 67.1005 18.0876L66.2546 18.9062ZM84.549 16.3875L85.0453 16.0711L84.5433 15.2839L84.0495 16.0762L84.549 16.3875ZM81.3096 21.5857L81.8062 21.9017L81.8091 21.8969L81.3096 21.5857ZM78.3339 21.661L78.8237 21.9875L78.8289 21.9794L78.3339 21.661ZM82.8163 14.6925L83.3113 15.0109L83.5135 14.6966L83.3151 14.38L82.8163 14.6925ZM78.8989 8.43967L79.3977 8.1272L79.3846 8.10628L79.3697 8.08654L78.8989 8.43967ZM81.6863 8.59034L81.3186 9.04993L81.3353 9.06325L81.3529 9.07534L81.6863 8.59034ZM83.0047 10.21L82.4986 10.5105L82.5049 10.5211L82.5115 10.5313L83.0047 10.21ZM84.6244 12.6961L84.1312 13.0174L84.6374 13.7943L85.125 13.0056L84.6244 12.6961ZM87.1858 8.55267L86.6892 8.23667L86.6851 8.2432L87.1858 8.55267ZM90.1615 8.43967L90.6615 8.75021L90.6758 8.72716L90.6879 8.70288L90.1615 8.43967ZM86.3948 14.5042L85.8948 14.1936L85.6995 14.5081L85.8983 14.8203L86.3948 14.5042ZM90.9525 21.661L90.456 21.9772L90.4628 21.9875L90.9525 21.661ZM90.9902 21.887L91.5485 22.0731V22.0731L90.9902 21.887ZM87.8638 21.5857L88.3805 21.3038L88.3708 21.2862L88.36 21.2692L87.8638 21.5857ZM84.0495 16.0762L80.8101 21.2744L81.8091 21.8969L85.0485 16.6988L84.0495 16.0762ZM80.8131 21.2697C80.722 21.4127 80.6667 21.4114 80.6316 21.4114V22.5886C81.1489 22.5886 81.5456 22.311 81.8062 21.9016L80.8131 21.2697ZM80.6316 21.4114H78.4846V22.5886H80.6316V21.4114ZM78.4846 21.4114C78.5029 21.4114 78.5769 21.4143 78.6649 21.4671C78.7646 21.5269 78.8268 21.6174 78.8546 21.7009L77.7379 22.0731C77.7908 22.2319 77.8969 22.379 78.0593 22.4764C78.2101 22.5669 78.3658 22.5886 78.4846 22.5886V21.4114ZM78.8546 21.7009C78.8711 21.7505 78.8775 21.8099 78.8673 21.8708C78.8576 21.929 78.8362 21.9685 78.8236 21.9875L77.8442 21.3345C77.7092 21.5369 77.6468 21.7998 77.7379 22.0731L78.8546 21.7009ZM78.8289 21.9794L83.3113 15.0109L82.3213 14.3741L77.8389 21.3426L78.8289 21.9794ZM83.3151 14.38L79.3977 8.1272L78.4001 8.75215L82.3176 15.005L83.3151 14.38ZM79.3697 8.08654C79.3507 8.06109 79.3663 8.07493 79.3819 8.12172C79.3981 8.17012 79.4319 8.31313 79.35 8.47688C79.2681 8.64062 79.1334 8.69938 79.085 8.71552C79.0382 8.73111 79.0178 8.72689 79.0496 8.72689V7.54978C78.9558 7.54978 78.8349 7.5581 78.7128 7.59881C78.5891 7.64006 78.4041 7.73649 78.2971 7.95046C78.1902 8.16443 78.224 8.37022 78.2652 8.49395C78.3059 8.61607 78.3718 8.71781 78.4281 8.79281L79.3697 8.08654ZM79.0496 8.72689H80.0289V7.54978H79.0496V8.72689ZM80.0289 8.72689C80.6886 8.72689 81.0878 8.86524 81.3186 9.04993L82.054 8.13076C81.5315 7.71276 80.8257 7.54978 80.0289 7.54978V8.72689ZM81.3529 9.07534C81.646 9.27684 82.0323 9.72515 82.4986 10.5105L83.5107 9.90957C83.0228 9.0878 82.5302 8.4563 82.0197 8.10535L81.3529 9.07534ZM82.5115 10.5313L84.1312 13.0174L85.1175 12.3748L83.4978 9.88877L82.5115 10.5313ZM85.125 13.0056L87.6864 8.86215L86.6851 8.2432L84.1237 12.3866L85.125 13.0056ZM87.6823 8.86866C87.7408 8.77667 87.8087 8.72689 87.9768 8.72689V7.54978C87.4418 7.54978 86.9823 7.77622 86.6892 8.23669L87.6823 8.86866ZM87.9768 8.72689H90.0108V7.54978H87.9768V8.72689ZM90.0108 8.72689C90.0192 8.72689 89.978 8.72895 89.9147 8.70363C89.8409 8.67413 89.7373 8.6059 89.6728 8.47688C89.6128 8.35694 89.6211 8.25269 89.628 8.21108C89.6348 8.1706 89.6451 8.15647 89.6351 8.17646L90.6879 8.70288C90.7281 8.62243 90.7698 8.5204 90.7891 8.40459C90.8086 8.28765 90.8107 8.12061 90.7256 7.95046C90.5397 7.57869 90.1531 7.54978 90.0108 7.54978V8.72689ZM89.6615 8.12914L85.8948 14.1936L86.8947 14.8147L90.6615 8.75021L89.6615 8.12914ZM85.8983 14.8203L90.4561 21.9771L91.449 21.3448L86.8912 14.188L85.8983 14.8203ZM90.4628 21.9875C90.4502 21.9685 90.4288 21.929 90.4191 21.8708C90.4089 21.8099 90.4153 21.7505 90.4318 21.7009L91.5485 22.0731C91.6396 21.7998 91.5772 21.5369 91.4422 21.3345L90.4628 21.9875ZM90.4318 21.7009C90.4597 21.6174 90.5218 21.5269 90.6215 21.4671C90.7095 21.4143 90.7835 21.4114 90.8019 21.4114V22.5886C90.9206 22.5886 91.0763 22.5669 91.2271 22.4764C91.3895 22.379 91.4956 22.2319 91.5485 22.0731L90.4318 21.7009ZM90.8019 21.4114H88.5795V22.5886H90.8019V21.4114ZM88.5795 21.4114C88.5006 21.4114 88.465 21.3954 88.4506 21.3871C88.4373 21.3794 88.4116 21.3609 88.3805 21.3038L87.3471 21.8675C87.4666 22.0867 87.6355 22.2753 87.8608 22.4058C88.085 22.5355 88.3319 22.5886 88.5795 22.5886V21.4114ZM88.36 21.2692L85.0453 16.0711L84.0528 16.704L87.3675 21.9021L88.36 21.2692Z" fill="white" mask="url(#path-1-outside-1_10_6)"/>
    </g>
    <defs>
        <filter id="filter0_d_10_6" x="0.613904" y="0.680145" width="91.5911" height="24.0884" filterUnits="userSpaceOnUse" color-interpolation-filters="sRGB">
            <feFlood flood-opacity="0" result="BackgroundImageFix"/>
            <feColorMatrix in="SourceAlpha" type="matrix" values="0 0 0 0 0 0 0 0 0 0 0 0 0 0 0 0 0 0 127 0" result="hardAlpha"/>
            <feOffset dy="1.17711"/>
            <feGaussianBlur stdDeviation="0.588556"/>
            <feComposite in2="hardAlpha" operator="out"/>
            <feColorMatrix type="matrix" values="0 0 0 0 0 0 0 0 0 0 0 0 0 0 0 0 0 0 0.25 0"/>
            <feBlend mode="normal" in2="BackgroundImageFix" result="effect1_dropShadow_10_6"/>
            <feBlend mode="normal" in="SourceGraphic" in2="effect1_dropShadow_10_6" result="shape"/>
        </filter>
        <radialGradient id="paint0_angular_10_6" cx="0" cy="0" r="1" gradientUnits="userSpaceOnUse" gradientTransform="translate(59.8656 10.9348) rotate(167.776) scale(57.0134 4.11524)">
            <stop offset="0.045799" stop-color="#B95FD0"/>
            <stop offset="0.215" stop-color="#4FDB5D"/>
            <stop offset="0.48" stop-color="#FE4B02"/>
            <stop offset="0.4801" stop-color="#DFFBFD"/>
            <stop offset="0.865" stop-color="#3986E5"/>
        </radialGradient>
    </defs>
</svg>
