<svg width="24" height="24" viewBox="0 0 24 24" fill="none" xmlns="http://www.w3.org/2000/svg">
    <path d="M6.00107 22H18.0011C18.5315 22 19.0402 21.7893 19.4153 21.4142C19.7904 21.0391 20.0011 20.5304 20.0011 20V8L14.0011 2H6.00107C5.47064 2 4.96193 2.21071 4.58685 2.58579C4.21178 2.96086 4.00107 3.46957 4.00107 4V20C4.00107 20.5304 4.21178 21.0391 4.58685 21.4142C4.96193 21.7893 5.47064 22 6.00107 22ZM13.0011 4L18.0011 9H13.0011V4ZM8.00107 14H11.0011V11H13.0011V14H16.0011V16H13.0011V19H11.0011V16H8.00107V14Z" fill="#63A5B6"/>
</svg>
